:SAMPLES-PER-SECOND 30
:FULLY-SPECIFIED
:DEGREES
16
root  75.2479 40.4099 -2.19376 -125.017 -88.8474 124.702
RightUpLeg  0.534606 -7.91959 -4.12368
RightLeg  5.09992 -5.42264 3.82238
RightFoot  -4.41644 0.113624 -2.56054
RightToes  0.00048216 0.542163 -0.142577
Spine  1.06751 0.336637 -2.7922
Spine1  5.47528 0.0714425 1.61678
HEad  -1.38341 -1.48326 -0.248853
LeftShoulder1  1.19343 -2.42407 -13.0306
LeftArm  -18.5831 14.2237 -8.23157
LeftForeArm  21.3129 -2.8055 -0.547721
LeftHand  -0.25398 0.0180481 5.50724
RightShoulder  0.623523 0.281343 9.09349
RightArm  -26.5158 -6.12298 8.04364
RightForeArm  1.61268 3.24052 0.986985
RightHand  -1.69001 4.98701 -19.1052
LeftUpLeg  1.48948 3.47519 -0.042505
LeftLeg  1.78514 15.8024 -3.58573
LeftFoot  -3.54285 -0.083257 1.5616
LeftToes  1.06247e-005 4.65855e-005 -8.185e-006
17
root  75.2544 40.4079 -2.18337 -123.545 -88.8436 123.253
RightUpLeg  0.45909 -7.96289 -4.16425
RightLeg  5.19308 -5.42981 3.82886
RightFoot  -4.44661 0.118068 -2.62974
RightToes  0.00048216 0.542163 -0.142577
Spine  1.44847 0.379343 -3.10511
Spine1  4.96071 0.00283913 2.11104
HEad  -1.24656 -1.49292 -0.440404
LeftShoulder1  1.21229 -2.42997 -13.3563
LeftArm  -18.3896 14.3242 -8.00798
LeftForeArm  21.3627 -2.83295 -0.600732
LeftHand  -0.25398 0.0180481 5.50724
RightShoulder  0.595294 0.171456 8.7845
RightArm  -26.2703 -6.21772 8.12433
RightForeArm  0.712239 3.40323 1.15173
RightHand  -1.66081 4.71786 -19.2605
LeftUpLeg  1.41784 3.47082 -0.0751861
LeftLeg  1.87399 15.8312 -3.57975
LeftFoot  -3.61319 -0.0851176 1.59053
LeftToes  1.06247e-005 4.65855e-005 -8.185e-006
18
root  75.2584 40.405 -2.17496 -120.436 -88.8586 120.141
RightUpLeg  0.433942 -8.01257 -4.2174
RightLeg  5.25658 -5.41402 3.84343
RightFoot  -4.50046 0.11424 -2.57013
RightToes  0.00048216 0.542163 -0.142577
Spine  1.87752 0.421428 -3.47204
Spine1  4.41164 -0.0682197 2.6227
HEad  -0.934803 -1.60278 -0.754364
LeftShoulder1  1.24384 -2.50597 -13.651
LeftArm  -18.0912 14.4666 -7.73446
LeftForeArm  21.3504 -2.90763 -0.699375
LeftHand  -0.25398 0.0180481 5.50724
RightShoulder  0.573301 0.0773875 8.57571
RightArm  -26.0741 -6.31818 8.09188
RightForeArm  0.510087 3.49272 1.22546
RightHand  -1.63748 4.52741 -19.3453
LeftUpLeg  1.37419 3.46621 -0.103173
LeftLeg  1.95492 15.788 -3.57444
LeftFoot  -3.65063 -0.0845717 1.58204
LeftToes  1.06247e-005 4.65855e-005 -8.185e-006
19
root  75.2586 40.4041 -2.16698 -120.419 -88.8704 120.081
RightUpLeg  0.491515 -8.02178 -4.23489
RightLeg  5.24212 -5.36865 3.84792
RightFoot  -4.50615 0.106326 -2.44692
RightToes  0.00048216 0.542163 -0.142577
Spine  1.90646 0.419569 -3.43072
Spine1  4.47911 -0.0282399 2.4336
HEad  -0.662105 -1.83133 -0.771716
LeftShoulder1  1.25939 -2.65873 -13.3708
LeftArm  -18.0071 14.6166 -7.78407
LeftForeArm  21.2623 -2.92476 -0.725132
LeftHand  -0.25398 0.0180481 5.50724
RightShoulder  0.597383 0.140539 8.99923
RightArm  -26.0711 -6.29608 7.70307
RightForeArm  0.60951 3.38184 1.17626
RightHand  -1.61499 4.37165 -19.3783
LeftUpLeg  1.41412 3.50054 -0.0882985
LeftLeg  1.96269 15.713 -3.60333
LeftFoot  -3.64865 -0.0865308 1.6125
LeftToes  1.06247e-005 4.65855e-005 -8.185e-006
20
root  75.2523 40.4071 -2.15332 -123.522 -88.8476 123.16
RightUpLeg  0.543565 -8.01184 -4.23492
RightLeg  5.19171 -5.33855 3.83517
RightFoot  -4.4624 0.109004 -2.48861
RightToes  0.00048216 0.542163 -0.142577
Spine  1.50361 0.391017 -3.16222
Spine1  5.10919 0.0632074 1.90543
HEad  -0.633692 -1.96746 -0.442016
LeftShoulder1  1.25002 -2.76456 -12.8296
LeftArm  -18.1735 14.6695 -8.0743
LeftForeArm  21.1236 -2.84966 -0.66337
LeftHand  -0.25398 0.0180481 5.50724
RightShoulder  0.644513 0.310841 9.56697
RightArm  -26.2261 -6.20261 7.31241
RightForeArm  0.238671 3.18518 1.10253
RightHand  -1.59681 4.18284 -19.5261
LeftUpLeg  1.49242 3.54436 -0.0768497
LeftLeg  1.88679 15.7561 -3.66455
LeftFoot  -3.67094 -0.0928321 1.71047
LeftToes  1.06247e-005 4.65855e-005 -8.185e-006
21
root  75.2389 40.4108 -2.13191 -126.269 -88.7731 125.952
RightUpLeg  0.512709 -8.03383 -4.28237
RightLeg  5.17643 -5.27346 3.82289
RightFoot  -4.45014 0.116769 -2.60951
RightToes  0.00048216 0.542163 -0.142577
Spine  1.16524 0.41204 -3.10426
Spine1  5.53437 0.126447 1.7498
HEad  -0.729452 -1.99441 -0.131106
LeftShoulder1  1.23641 -2.75268 -12.6331
LeftArm  -18.3463 14.5726 -8.23907
LeftForeArm  21.0555 -2.76206 -0.604044
LeftHand  -0.25398 0.0180481 5.50724
RightShoulder  0.662343 0.394726 9.67056
RightArm  -26.2974 -6.22408 7.22641
RightForeArm  -0.176182 3.12939 1.08833
RightHand  -1.60857 4.16739 -19.6949
LeftUpLeg  1.53703 3.52729 -0.137196
LeftLeg  1.77079 15.9196 -3.71345
LeftFoot  -3.69018 -0.0958251 1.75701
LeftToes  1.06247e-005 4.65855e-005 -8.185e-006
22
root  75.2224 40.4108 -2.10494 -128.158 -88.6771 127.892
RightUpLeg  0.446195 -8.08803 -4.38565
RightLeg  5.227 -5.10695 3.82683
RightFoot  -4.48879 0.112103 -2.53686
RightToes  0.00048216 0.542163 -0.142577
Spine  1.24441 0.507247 -3.15042
Spine1  5.35681 0.225827 1.75677
HEad  -0.591339 -2.13726 0.0283486
LeftShoulder1  1.2432 -2.76729 -12.7017
LeftArm  -18.41 14.4376 -8.18678
LeftForeArm  21.1352 -2.74439 -0.586075
LeftHand  -0.25398 0.0180481 5.50724
RightShoulder  0.651421 0.322817 9.70931
RightArm  -26.1499 -6.35907 7.12732
RightForeArm  -0.0863726 3.23528 1.13306
RightHand  -1.64395 4.39788 -19.6634
LeftUpLeg  1.5556 3.44759 -0.253064
LeftLeg  1.67211 16.0495 -3.71813
LeftFoot  -3.64694 -0.0938567 1.7264
LeftToes  1.06247e-005 4.65855e-005 -8.185e-006
23
root  75.2063 40.4063 -2.07195 -129.902 -88.6225 129.64
RightUpLeg  0.418333 -8.16202 -4.4962
RightLeg  5.32629 -4.94005 3.8591
RightFoot  -4.52518 0.10127 -2.36823
RightToes  0.00048216 0.542163 -0.142577
Spine  1.51713 0.585832 -2.96206
Spine1  5.01039 0.383666 1.40707
HEad  -0.0994851 -2.26706 0.256595
LeftShoulder1  1.26736 -2.91872 -12.606
LeftArm  -18.4915 14.4368 -8.17428
LeftForeArm  21.2341 -2.83553 -0.565094
LeftHand  -0.25398 0.0180481 5.50724
RightShoulder  0.654665 0.240822 10.2173
RightArm  -26.0005 -6.40627 6.76919
RightForeArm  -0.0870741 3.3199 1.18408
RightHand  -1.65408 4.52943 -19.5307
LeftUpLeg  1.56451 3.39317 -0.341775
LeftLeg  1.68719 16.1073 -3.69711
LeftFoot  -3.71339 -0.0936007 1.74946
LeftToes  1.06247e-005 4.65855e-005 -8.185e-006
24
root  75.1907 40.3972 -2.02742 -129.677 -88.6603 129.413
RightUpLeg  0.413104 -8.28824 -4.60607
RightLeg  5.43918 -4.88541 3.94003
RightFoot  -4.5805 0.0990762 -2.33408
RightToes  0.00048216 0.542163 -0.142577
Spine  1.68 0.546878 -2.70174
Spine1  4.91247 0.421397 1.05179
HEad  0.351386 -2.11335 0.388709
LeftShoulder1  1.2818 -3.04269 -12.4396
LeftArm  -18.7698 14.6266 -8.43871
LeftForeArm  21.2408 -3.14203 -0.497563
LeftHand  -0.25398 0.0180481 5.50724
RightShoulder  0.676081 0.271929 10.6887
RightArm  -26.1651 -6.35805 6.66182
RightForeArm  -0.709217 3.36638 1.18824
RightHand  -1.64226 4.39128 -19.6575
LeftUpLeg  1.48153 3.408 -0.368513
LeftLeg  1.97503 16.1379 -3.65182
LeftFoot  -4.17653 -0.0814183 1.70166
LeftToes  1.06247e-005 4.65855e-005 -8.185e-006
25
root  75.1774 40.3805 -1.96287 -126.249 -88.7751 126.002
RightUpLeg  0.401685 -8.48371 -4.76024
RightLeg  5.56272 -4.83145 4.06458
RightFoot  -4.72482 0.0907435 -2.20439
RightToes  0.00048216 0.542163 -0.142577
Spine  1.87106 0.426649 -2.64487
Spine1  4.89945 0.261521 1.2106
HEad  0.505347 -1.73894 0.205401
LeftShoulder1  1.28115 -2.98025 -12.6365
LeftArm  -19.4868 14.9605 -9.01194
LeftForeArm  21.3399 -3.91883 -0.334565
LeftHand  -0.25398 0.0180481 5.50724
RightShoulder  0.687361 0.369308 10.5149
RightArm  -26.604 -6.55093 7.31964
RightForeArm  -1.33726 3.74266 1.1725
RightHand  -1.69396 4.41489 -20.2032
LeftUpLeg  1.22276 3.37879 -0.405857
LeftLeg  2.66273 16.0543 -3.47434
LeftFoot  -5.03231 -0.0365944 1.20547
LeftToes  1.06247e-005 4.65855e-005 -8.185e-006
26
root  75.1681 40.3555 -1.87017 -122.797 -88.893 122.485
RightUpLeg  0.442907 -8.69137 -4.96928
RightLeg  5.74335 -4.6588 4.17014
RightFoot  -4.90468 0.0615039 -1.74952
RightToes  0.00048216 0.542163 -0.142577
Spine  2.31151 0.339146 -2.49054
Spine1  4.85152 0.124937 1.40685
HEad  0.516956 -1.59894 -0.113306
LeftShoulder1  1.3109 -2.92851 -13.3143
LeftArm  -20.9067 15.4483 -9.79518
LeftForeArm  21.7217 -5.47481 -0.0362532
LeftHand  -0.25398 0.0180481 5.50724
RightShoulder  0.705571 0.521789 10.2707
RightArm  -26.8964 -7.33596 8.42048
RightForeArm  -1.53363 4.95406 1.31463
RightHand  -1.86651 5.01653 -20.9622
LeftUpLeg  0.873114 3.23026 -0.559983
LeftLeg  3.7136 15.949 -3.03221
LeftFoot  -6.1014 0.0174667 0.416667
LeftToes  1.06247e-005 4.65855e-005 -8.185e-006
27
root  75.1542 40.3313 -1.7486 -124.244 -88.9511 123.718
RightUpLeg  0.604393 -8.85128 -5.19593
RightLeg  5.9853 -4.47065 4.19812
RightFoot  -5.0172 0.0378867 -1.38229
RightToes  0.00048216 0.542163 -0.142577
Spine  2.8149 0.328253 -1.89164
Spine1  5.08234 0.216325 0.945452
HEad  0.527569 -1.94451 -0.333864
LeftShoulder1  1.42505 -3.18632 -14.3229
LeftArm  -22.9084 16.2009 -10.7068
LeftForeArm  22.2809 -7.97683 0.277298
LeftHand  -0.25398 0.0180481 5.50724
RightShoulder  0.787367 0.843661 10.9104
RightArm  -26.6245 -8.70205 9.38921
RightForeArm  -1.68852 7.19315 1.81385
RightHand  -2.10495 6.00028 -21.6012
LeftUpLeg  0.669655 3.23684 -0.817994
LeftLeg  4.88784 16.5789 -2.37256
LeftFoot  -7.47602 0.0413848 0.13362
LeftToes  1.06247e-005 4.65855e-005 -8.185e-006
28
root  75.1173 40.3139 -1.60779 -131.735 -88.9151 130.945
RightUpLeg  0.845378 -8.97054 -5.42265
RightLeg  6.22171 -4.28065 4.17836
RightFoot  -5.15551 0.0353138 -1.34229
RightToes  0.00048216 0.542163 -0.142577
Spine  3.14104 0.396461 -1.19975
Spine1  5.61946 0.466496 0.170537
HEad  0.687022 -2.21712 -0.300374
LeftShoulder1  1.62145 -3.72359 -15.572
LeftArm  -25.089 17.3173 -11.8032
LeftForeArm  23.3074 -11.2869 0.284317
LeftHand  -0.25398 0.0180481 5.50724
RightShoulder  0.937319 1.31323 12.412
RightArm  -25.6171 -10.341 10.2837
RightForeArm  -1.64372 10.1955 2.64272
RightHand  -2.2855 6.78956 -21.936
LeftUpLeg  0.792346 3.65534 -0.958452
LeftLeg  5.87727 18.9429 -1.78046
LeftFoot  -9.26063 0.0462148 0.547085
LeftToes  1.06247e-005 4.65855e-005 -8.185e-006
29
root  75.0477 40.2931 -1.45793 -142.114 -88.789 141.115
RightUpLeg  1.05675 -9.08929 -5.67313
RightLeg  6.49134 -3.87326 4.1702
RightFoot  -5.5086 0.0142893 -0.995801
RightToes  0.00048216 0.542163 -0.142577
Spine  3.45677 0.52924 -1.01406
Spine1  5.93752 0.653341 -0.0719307
HEad  1.30842 -2.10858 -0.179584
LeftShoulder1  1.83578 -4.18859 -17.1367
LeftArm  -27.5557 18.761 -13.1173
LeftForeArm  25.9587 -15.0023 -0.370576
LeftHand  -0.25398 0.0180481 5.50724
RightShoulder  1.1018 1.75415 14.071
RightArm  -23.8012 -11.9537 11.5855
RightForeArm  -0.686844 13.4787 3.51123
RightHand  -2.34026 7.0337 -22.0204
LeftUpLeg  1.24098 4.51029 -0.738736
LeftLeg  6.45774 22.4801 -1.58462
LeftFoot  -10.8551 0.0612553 0.713142
LeftToes  1.06247e-005 4.65855e-005 -8.185e-006
30
root  74.9546 40.2508 -1.29746 -149.36 -88.7134 148.179
RightUpLeg  1.09628 -9.36418 -5.9423
RightLeg  7.167 -3.26538 4.07498
RightFoot  -6.11113 -0.0366763 -0.100634
RightToes  0.00048216 0.542163 -0.142577
Spine  3.87069 0.608428 -1.28213
Spine1  5.98895 0.651548 0.175873
HEad  2.55148 -1.85738 -0.108643
LeftShoulder1  2.03542 -4.44538 -19.0169
LeftArm  -30.0156 20.2706 -14.6304
LeftForeArm  29.9799 -18.555 -1.53037
LeftHand  -0.25398 0.0180481 5.50724
RightShoulder  1.2782 2.16156 15.8256
RightArm  -21.2323 -13.44 13.2925
RightForeArm  0.922628 16.6843 4.10605
RightHand  -2.27499 6.75837 -21.892
LeftUpLeg  1.82515 5.40787 -0.2447
LeftLeg  6.66464 25.0677 -1.88181
LeftFoot  -11.3734 0.0689645 0.0339938
LeftToes  1.06247e-005 4.65855e-005 -8.185e-006
